<?xml version="1.0" encoding="utf-8"?>
<!-- Generator: Adobe Illustrator 24.3.0, SVG Export Plug-In . SVG Version: 6.00 Build 0)  -->
<svg version="1.1" id="Layer_1" xmlns="http://www.w3.org/2000/svg" xmlns:xlink="http://www.w3.org/1999/xlink" x="0px" y="0px"
	 viewBox="0 0 200 51.1" style="enable-background:new 0 0 200 51.1;" xml:space="preserve">
<style type="text/css">
	.st0{fill:#FFFFFF;}
</style>
<g>
	<g>
		<path d="M118,2.5H23.3c-12.7,0-23,10.3-23,23s10.3,23,23,23H118c12.7,0,23-10.3,23-23S130.8,2.5,118,2.5z"/>
		<g>
			<polygon class="st0" points="35.9,30 31.3,14.6 26,14.6 21.4,29.9 17.2,14.6 12.1,14.6 18.6,36.5 24.2,36.5 28.6,21.6 33.1,36.5 
				38.7,36.5 45.2,14.6 40.1,14.6 			"/>
			<polygon class="st0" points="47.5,36.5 62.6,36.5 62.6,31.9 52.3,31.9 52.3,27.7 59.3,27.7 59.3,23.4 52.3,23.4 52.3,19.2 
				62.6,19.2 62.6,14.6 47.5,14.6 			"/>
			<path class="st0" d="M74.1,14.6L65,36.5h5.1L72,32h9.1l1.8,4.5h5.1l-9.2-21.8H74.1z M73.7,27.9l2.9-7l2.9,7H73.7z"/>
			<path class="st0" d="M106.2,25.2c0.7-1.1,1.1-2.3,1.1-3.7c0-1.9-0.7-3.6-2.2-4.9c-1.4-1.3-3.2-2-5.4-2h-9.6v21.8H95v-8.1h3.2
				l4.7,8.1h5.4l-5-8.8C104.5,27.1,105.5,26.3,106.2,25.2z M101.8,23.4c-0.5,0.5-1.2,0.7-2,0.7H95v-4.9h4.9c0.8,0,1.5,0.2,2,0.7
				c0.5,0.5,0.8,1.1,0.8,1.8C102.6,22.3,102.4,22.9,101.8,23.4z"/>
			<polygon class="st0" points="118.1,31.9 128.6,18.2 128.6,14.6 111.4,14.6 111.4,19.2 121.8,19.2 111.4,32.9 111.4,36.5 
				129.2,36.5 129.2,31.9 			"/>
		</g>
	</g>
	<g>
		<path d="M155.1,17.4H148v16.4h2.5v-6.6h4.6c1.6,0,2.9-0.5,3.9-1.4s1.5-2.1,1.5-3.5c0-1.4-0.5-2.6-1.6-3.5
			C158,17.8,156.7,17.4,155.1,17.4z M157.2,24c-0.5,0.5-1.2,0.7-2.1,0.7h-4.6v-4.9h4.6c0.9,0,1.6,0.2,2.1,0.7
			c0.5,0.5,0.8,1.1,0.8,1.8C158,23,157.8,23.5,157.2,24z"/>
		<path d="M170.6,17.4l-6.8,16.4h2.7l1.6-4h7.9l1.6,4h2.7l-6.9-16.4H170.6z M169.2,27.4l2.9-7.2l3,7.2H169.2z"/>
		<polygon points="192.8,24.5 199.7,17.4 196.4,17.4 188.8,25.3 188.8,17.4 186.2,17.4 186.2,33.7 188.8,33.7 188.8,28.6 191,26.3 
			196.7,33.7 199.8,33.7 		"/>
	</g>
</g>
</svg>
