<?xml version="1.0" encoding="utf-8"?>
<!-- Generator: Adobe Illustrator 24.3.0, SVG Export Plug-In . SVG Version: 6.00 Build 0)  -->
<svg version="1.1" id="Layer_1" xmlns="http://www.w3.org/2000/svg" xmlns:xlink="http://www.w3.org/1999/xlink" x="0px" y="0px"
	 viewBox="0 0 200 37.5" style="enable-background:new 0 0 200 37.5;" xml:space="preserve">
<style type="text/css">
	.st0{fill:#FFFFFF;}
</style>
<g>
	<polygon points="33.2,5.9 28.2,23.9 22.7,5.9 16.6,5.9 11.2,23.9 6.2,5.9 0.2,5.9 7.8,31.6 14.4,31.6 19.7,14.1 24.9,31.6 
		31.5,31.6 39.1,5.9 	"/>
	<g>
		<polygon points="168.7,10.1 168.7,5.9 148.5,5.9 148.5,11.3 160.7,11.3 148.5,27.4 148.5,31.6 169.4,31.6 169.4,26.2 156.4,26.2 
					"/>
		<path d="M188.9,5.9h-5.6l-10.7,25.7h6l2.1-5.3h10.7l2.2,5.3h6L188.9,5.9z M182.8,21.5l3.4-8.3l3.4,8.3H182.8z"/>
	</g>
	<g>
		<path d="M126.2,1.3H61.4c-9.7,0-17.5,7.8-17.5,17.5c0,9.7,7.8,17.5,17.5,17.5h64.9c9.7,0,17.5-7.8,17.5-17.5
			C143.7,9.1,135.9,1.3,126.2,1.3z"/>
		<g>
			<polygon class="st0" points="58.1,31.6 75.8,31.6 75.8,26.2 63.6,26.2 63.6,21.3 71.9,21.3 71.9,16.2 63.6,16.2 63.6,11.3 
				75.8,11.3 75.8,5.9 58.1,5.9 			"/>
			<path class="st0" d="M89.4,5.9L78.7,31.6h6l2.1-5.3h10.7l2.2,5.3h6L94.9,5.9H89.4z M88.8,21.5l3.4-8.3l3.4,8.3H88.8z"/>
			<path class="st0" d="M123.6,21.2c1.5-0.7,2.7-1.6,3.5-2.9c0.9-1.3,1.3-2.8,1.3-4.4c0-2.3-0.8-4.2-2.5-5.7s-3.8-2.3-6.3-2.3h-11.3
				v25.7h5.6v-9.5h3.8l5.5,9.5h6.4L123.6,21.2z M121.9,16.2c-0.6,0.6-1.4,0.8-2.3,0.8h-5.7v-5.8h5.7c1,0,1.7,0.3,2.4,0.8
				c0.6,0.5,0.9,1.2,0.9,2.1C122.9,14.9,122.6,15.6,121.9,16.2z"/>
		</g>
	</g>
</g>
</svg>
