<?xml version="1.0" encoding="utf-8"?>
<!-- Generator: Adobe Illustrator 24.3.0, SVG Export Plug-In . SVG Version: 6.00 Build 0)  -->
<svg version="1.1" id="Layer_1" xmlns="http://www.w3.org/2000/svg" xmlns:xlink="http://www.w3.org/1999/xlink" x="0px" y="0px"
	 viewBox="0 0 500 94.34" style="enable-background:new 0 0 500 94.34;" xml:space="preserve">
<style type="text/css">
	.st0{fill:#FFFFFF;}
</style>
<g>
	<g>
		<path d="M426.39,76.18c-0.75-0.68-1.84-1.02-3.28-1.02H384.4l39.44-54.96c0.89-1.16,1.47-2.29,1.74-3.38
			c0.27-1.09,0.26-2.06-0.05-2.92c-0.31-0.85-0.85-1.54-1.64-2.05c-0.79-0.51-1.79-0.77-3.02-0.77h-43.91
			c-1.43,0-2.53,0.34-3.28,1.02c-0.75,0.68-1.13,1.67-1.13,2.97c0,1.3,0.37,2.3,1.13,3.02c0.75,0.72,1.84,1.07,3.28,1.07h37.19
			l-39.44,54.96c-0.82,1.16-1.38,2.29-1.69,3.38c-0.31,1.09-0.31,2.06,0,2.92c0.31,0.85,0.85,1.54,1.64,2.05
			c0.78,0.51,1.79,0.77,3.02,0.77h45.44c1.43,0,2.52-0.36,3.28-1.07c0.75-0.72,1.13-1.72,1.13-3.02
			C427.52,77.86,427.14,76.87,426.39,76.18z"/>
		<path d="M499.06,77.72l-27.94-63.25c-0.68-1.43-1.48-2.47-2.41-3.12c-0.92-0.65-1.96-0.97-3.12-0.97c-1.16,0-2.22,0.32-3.17,0.97
			c-0.96,0.65-1.74,1.69-2.35,3.12l-27.94,63.25c-0.55,1.16-0.75,2.22-0.61,3.17c0.14,0.96,0.56,1.71,1.28,2.25
			c0.72,0.55,1.69,0.82,2.92,0.82s2.22-0.32,2.97-0.97c0.75-0.65,1.43-1.72,2.05-3.22l6.22-14.53h37.1l6.22,14.53
			c0.61,1.37,1.33,2.41,2.15,3.12c0.82,0.72,1.91,1.07,3.28,1.07c1.23,0,2.18-0.26,2.87-0.77c0.68-0.51,1.07-1.26,1.18-2.25
			C499.83,79.96,499.61,78.88,499.06,77.72z M465.39,21.84h0.2l15.15,35.62h-30.42L465.39,21.84z"/>
	</g>
	<path d="M104.13,12.73c-0.75-1.09-1.91-1.64-3.48-1.64c-1.37,0-2.42,0.32-3.17,0.97c-0.75,0.65-1.37,1.66-1.84,3.02L76.5,70.71
		L57.46,15.39c-0.48-1.5-1.07-2.59-1.79-3.28c-0.72-0.68-1.72-1.02-3.02-1.02c-1.23,0-2.22,0.34-2.97,1.02
		c-0.75,0.68-1.4,1.74-1.94,3.17L28.52,70.14L9.76,15.08c-0.48-1.43-1.09-2.46-1.84-3.07c-0.75-0.61-1.78-0.92-3.07-0.92
		c-1.84,0-3.16,0.55-3.94,1.64c-0.79,1.09-0.87,2.42-0.26,3.99l22.31,63.66c0.55,1.5,1.23,2.59,2.05,3.28
		c0.82,0.68,1.91,1.02,3.28,1.02c1.36,0,2.44-0.34,3.22-1.02c0.78-0.68,1.45-1.74,2-3.17l18.93-54.19l18.83,54.09
		c0.55,1.5,1.23,2.59,2.05,3.28s1.94,1.02,3.38,1.02c1.36,0,2.46-0.34,3.28-1.02c0.82-0.68,1.47-1.74,1.94-3.17l22.52-63.76
		C104.98,15.15,104.88,13.82,104.13,12.73z"/>
	<path d="M329.82,91.56H155.53c-23.85,0-43.18-19.33-43.18-43.18v-2.43c0-23.85,19.33-43.18,43.18-43.18h174.29
		c23.85,0,43.18,19.33,43.18,43.18v2.43C373,72.23,353.66,91.56,329.82,91.56z"/>
	<g>
		<path class="st0" d="M191.13,18.87c1.3,0,2.3-0.34,3.02-1.02c0.72-0.68,1.07-1.67,1.07-2.97c0-1.23-0.36-2.17-1.07-2.81
			c-0.72-0.65-1.72-0.97-3.02-0.97h-37.66c-1.64,0-2.9,0.44-3.79,1.33c-0.89,0.89-1.33,2.15-1.33,3.79v61.92
			c0,1.64,0.44,2.9,1.33,3.79c0.89,0.89,2.15,1.33,3.79,1.33h37.66c1.3,0,2.3-0.32,3.02-0.97c0.72-0.65,1.07-1.62,1.07-2.92
			c0-1.3-0.36-2.27-1.07-2.92c-0.72-0.65-1.72-0.97-3.02-0.97h-33.57V50.49h31.42c1.3,0,2.29-0.32,2.97-0.97
			c0.68-0.65,1.02-1.62,1.02-2.92c0-1.23-0.34-2.18-1.02-2.87c-0.68-0.68-1.67-1.02-2.97-1.02h-31.42V18.87H191.13z"/>
		<path class="st0" d="M241.18,14.47c-0.68-1.43-1.48-2.47-2.41-3.12c-0.92-0.65-1.96-0.97-3.12-0.97c-1.16,0-2.22,0.32-3.17,0.97
			c-0.96,0.65-1.74,1.69-2.35,3.12l-27.94,63.25c-0.55,1.16-0.75,2.22-0.61,3.17c0.14,0.96,0.56,1.71,1.28,2.25
			c0.72,0.55,1.69,0.82,2.92,0.82s2.22-0.32,2.97-0.97c0.75-0.65,1.43-1.72,2.05-3.22L217,65.23h37.1l6.22,14.53
			c0.61,1.37,1.33,2.41,2.15,3.12c0.82,0.72,1.91,1.07,3.28,1.07c1.23,0,2.18-0.26,2.87-0.77c0.68-0.51,1.07-1.26,1.18-2.25
			c0.1-0.99-0.12-2.06-0.67-3.22L241.18,14.47z M235.45,21.84h0.2l15.15,35.62h-30.42L235.45,21.84z"/>
		<path class="st0" d="M336.16,77.31l-9.42-17.3c-1.57-3-3.36-5.18-5.37-6.55c-0.84-0.57-1.74-1.01-2.69-1.35
			c1.96-0.41,3.76-0.98,5.41-1.73c3.62-1.64,6.38-4.01,8.29-7.11c1.91-3.1,2.87-6.84,2.87-11.21c0-6.69-2.1-11.86-6.29-15.51
			c-4.2-3.65-10.18-5.48-17.96-5.48h-24.36c-1.5,0-2.68,0.41-3.53,1.23c-0.85,0.82-1.28,2.01-1.28,3.58v63.15
			c0,1.57,0.41,2.78,1.23,3.63c0.82,0.85,1.98,1.28,3.48,1.28c1.64,0,2.85-0.43,3.63-1.28c0.78-0.85,1.18-2.06,1.18-3.63V53.16
			h12.28c3.21,0,5.77,0.46,7.68,1.38c1.91,0.92,3.62,2.81,5.12,5.68l11.05,20.27c0.61,1.16,1.33,2.03,2.15,2.61
			c0.82,0.58,1.91,0.87,3.28,0.87c1.3,0,2.29-0.32,2.97-0.97c0.68-0.65,1.06-1.48,1.13-2.51C337.05,79.46,336.78,78.4,336.16,77.31z
			 M291.33,45.79V18.87h18.12c5.46,0,9.55,1.13,12.28,3.38c2.73,2.25,4.09,5.6,4.09,10.03c0,4.44-1.37,7.8-4.09,10.08
			c-2.73,2.29-6.82,3.43-12.28,3.43H291.33z"/>
	</g>
</g>
</svg>
