<?xml version="1.0" encoding="utf-8"?>
<!-- Generator: Adobe Illustrator 24.3.0, SVG Export Plug-In . SVG Version: 6.00 Build 0)  -->
<svg version="1.1" id="Layer_1" xmlns="http://www.w3.org/2000/svg" xmlns:xlink="http://www.w3.org/1999/xlink" x="0px" y="0px"
	 viewBox="0 0 200 45" style="enable-background:new 0 0 200 45;" xml:space="preserve">
<style type="text/css">
	.st0{fill:#FFFFFF;}
</style>
<g>
	<g>
		<path d="M115.1,1.7H21C9.5,1.7,0.2,11,0.2,22.5S9.5,43.2,21,43.2h94.1c11.5,0,20.7-9.3,20.7-20.7S126.6,1.7,115.1,1.7z"/>
		<g>
			<polygon class="st0" points="34.7,26.7 30.3,12 25.3,12 20.9,26.7 16.8,12 12,12 18.2,33 23.5,33 27.8,18.7 32.1,33 37.4,33 
				43.6,12 38.8,12 			"/>
			<polygon class="st0" points="45.9,33 60.3,33 60.3,28.6 50.4,28.6 50.4,24.6 57.2,24.6 57.2,20.4 50.4,20.4 50.4,16.4 60.3,16.4 
				60.3,12 45.9,12 			"/>
			<path class="st0" d="M71.4,12L62.7,33h4.9l1.7-4.3h8.7l1.8,4.3h4.9L75.9,12H71.4z M70.9,24.8l2.7-6.7l2.8,6.7H70.9z"/>
			<path class="st0" d="M102.2,22.1c0.7-1.1,1.1-2.2,1.1-3.6c0-1.9-0.7-3.4-2.1-4.7C99.8,12.6,98.1,12,96,12h-9.2V33h4.5v-7.8h3.1
				l4.5,7.8h5.2l-4.8-8.4C100.5,24,101.5,23.2,102.2,22.1z M98,20.4c-0.5,0.5-1.2,0.7-1.9,0.7h-4.7v-4.7H96c0.8,0,1.4,0.2,1.9,0.7
				c0.5,0.4,0.8,1,0.8,1.7C98.7,19.4,98.5,19.9,98,20.4z"/>
			<polygon class="st0" points="113.6,28.6 123.6,15.4 123.6,12 107.1,12 107.1,16.4 117.1,16.4 107.1,29.5 107.1,33 124.2,33 
				124.2,28.6 			"/>
		</g>
	</g>
	<g>
		<path d="M155.4,13.9c-1.4-1.3-3.1-1.9-5.1-1.9H141V33h4.6v-7.5h4.7c2.1,0,3.8-0.6,5.1-1.9c1.4-1.3,2.1-2.9,2.1-4.8
			C157.4,16.8,156.7,15.2,155.4,13.9z M152.1,20.4c-0.5,0.5-1.1,0.7-1.9,0.7h-4.7v-4.7h4.7c0.8,0,1.4,0.2,1.9,0.7
			c0.5,0.4,0.8,1,0.8,1.7C152.9,19.4,152.7,19.9,152.1,20.4z"/>
		<path d="M165.7,12L156.9,33h4.9l1.7-4.3h8.7l1.8,4.3h4.9L170.2,12H165.7z M165.2,24.8l2.7-6.7l2.8,6.7H165.2z"/>
		<polygon points="190.8,21 199.7,12 193.8,12 185.7,20.5 185.7,12 181.1,12 181.1,33 185.7,33 185.7,26.3 187.6,24.3 194.3,33 
			199.8,33 		"/>
	</g>
</g>
</svg>
